<svg viewBox="0 0 40 40" xmlns="http://www.w3.org/2000/svg">
  <!-- Outer border of the note -->
  <rect x="2" y="12" width="36" height="22" rx="2" ry="2" fill="#8FBC8F" stroke="#6B8E6B" stroke-width="0.5"/>
  
  <!-- Inner note area -->
  <rect x="3" y="13" width="34" height="20" rx="1.5" ry="1.5" fill="#C8E6C9"/>
  
  <!-- Corner decorative elements -->
  <circle cx="6" cy="16" r="1.5" fill="#7CB342" opacity="0.6"/>
  <circle cx="34" cy="16" r="1.5" fill="#7CB342" opacity="0.6"/>
  <circle cx="6" cy="30" r="1.5" fill="#7CB342" opacity="0.6"/>
  <circle cx="34" cy="30" r="1.5" fill="#7CB342" opacity="0.6"/>
  
  <!-- Central rupee symbol circle -->
  <circle cx="20" cy="23" r="6" fill="#4A7C59"/>
  
  <!-- Rupee symbol (₹) -->
  <g transform="translate(20, 23)">
    <!-- Top horizontal line -->
    <rect x="-3" y="-4" width="6" height="0.8" fill="#C8E6C9"/>
    <!-- Second horizontal line -->
    <rect x="-3" y="-2.5" width="4" height="0.8" fill="#C8E6C9"/>
    <!-- Vertical line -->
    <rect x="-2.5" y="-2.5" width="0.8" height="6" fill="#C8E6C9"/>
    <!-- Diagonal line -->
    <path d="M -1.5 -1 L 2.5 4" stroke="#C8E6C9" stroke-width="0.8" stroke-linecap="round"/>
  </g>
  
  <!-- Decorative side circles -->
  <circle cx="10" cy="23" r="1" fill="#7CB342" opacity="0.4"/>
  <circle cx="30" cy="23" r="1" fill="#7CB342" opacity="0.4"/>
  
  <!-- Subtle gradient overlay for depth -->
  <defs>
    <linearGradient id="noteGradient" x1="0%" y1="0%" x2="0%" y2="100%">
      <stop offset="0%" style="stop-color:#ffffff;stop-opacity:0.2" />
      <stop offset="100%" style="stop-color:#000000;stop-opacity:0.1" />
    </linearGradient>
  </defs>
  <rect x="3" y="13" width="34" height="20" rx="1.5" ry="1.5" fill="url(#noteGradient)"/>
</svg>